#!OML:ASF C:\Vicon Data\Big\jianyuan-13\jianyuan\Session 1\Capture.male.ASF
:FULLY-SPECIFIED
:DEGREES
167
root -6.344996 17.118652 -7.035218 10.183921 2.801094 2.827979
lowerback -8.449636 1.904499 -4.620889 
upperback 2.871475 3.250823 -1.447592 
thorax 7.614168 1.431612 1.549711 
lowerneck -1.008470 -2.817683 3.366780 
upperneck 10.706668 -4.164196 -2.226503 
head 3.520770 -2.192339 -1.465284 
rclavicle 0.000000 0.000000 
rhumerus -30.317520 -12.045930 -85.208542 
rradius 40.878063 
rwrist 20.658816 
rhand -18.963593 -18.627234 
rfingers 0.000000 
rthumb 7.340283 -48.479960 
lclavicle 0.000000 0.000000 
lhumerus -40.213744 32.906972 70.158456 
lradius 25.944791 
lwrist -57.136718 
lhand -18.918875 1.341171 
lfingers 0.000000 
lthumb 7.383453 31.192277 
rfemur -31.174828 -7.414549 13.411174 
rtibia 85.609306 
rfoot -0.341777 -1.133359 
rtoes -37.967834 
lfemur -35.404604 -2.051038 -25.409524 
ltibia 32.765315 
lfoot -7.759374 -0.014286 
ltoes -21.587465 
168
root -6.321188 17.141814 -6.957310 9.966430 2.827575 2.783577
lowerback -8.303466 1.768405 -4.585306 
upperback 2.887221 3.052448 -1.404667 
thorax 7.556874 1.336431 1.541149 
lowerneck -1.079043 -2.730765 3.357768 
upperneck 10.872923 -4.060156 -2.242017 
head 3.595825 -2.145561 -1.472046 
rclavicle 0.000000 0.000000 
rhumerus -30.478890 -11.989543 -85.198106 
rradius 40.883893 
rwrist 20.634285 
rhand -18.962565 -18.643738 
rfingers 0.000000 
rthumb 7.341263 -48.496338 
lclavicle 0.000000 0.000000 
lhumerus -39.738101 33.578972 70.051847 
lradius 25.366918 
lwrist -58.362974 
lhand -19.170799 1.170082 
lfingers 0.000000 
lthumb 7.140259 31.029658 
rfemur -32.455702 -7.574751 13.405986 
rtibia 86.839594 
rfoot -0.382600 -0.911821 
rtoes -37.618899 
lfemur -34.679362 -2.072104 -25.446133 
ltibia 32.451113 
lfoot -7.943901 -0.046773 
ltoes -20.902408 
169
root -6.299006 17.165481 -6.881579 9.826825 2.917391 2.766751
lowerback -8.238628 1.662520 -4.566184 
upperback 2.884406 2.900168 -1.363666 
thorax 7.523476 1.262212 1.549587 
lowerneck -1.137476 -2.674043 3.329636 
upperneck 11.012957 -3.991419 -2.277313 
head 3.658407 -2.117199 -1.481966 
rclavicle 0.000000 0.000000 
rhumerus -30.678083 -11.910554 -85.110430 
rradius 40.981033 
rwrist 20.289151 
rhand -18.943622 -18.645894 
rfingers 0.000000 
rthumb 7.359584 -48.497946 
lclavicle 0.000000 0.000000 
lhumerus -39.180482 34.033601 70.151869 
lradius 24.964997 
lwrist -59.456723 
lhand -19.182574 0.916845 
lfingers 0.000000 
lthumb 7.128936 30.776811 
rfemur -33.809467 -7.778277 13.408042 
rtibia 88.021494 
rfoot -0.460185 -0.613796 
rtoes -37.650189 
lfemur -34.041098 -2.127485 -25.505640 
ltibia 32.130877 
lfoot -8.070440 -0.122147 
ltoes -20.646742 
170
root -6.278291 17.186127 -6.805447 9.652436 2.973473 2.754988
lowerback -8.132083 1.518296 -4.579549 
upperback 2.879532 2.700762 -1.344609 
thorax 7.466489 1.165225 1.545307 
lowerneck -1.181937 -2.571462 3.513247 
upperneck 11.115480 -3.857078 -2.425805 
head 3.702280 -2.052139 -1.563459 
rclavicle 0.000000 0.000000 
rhumerus -30.845784 -11.889071 -85.096885 
rradius 40.942577 
rwrist 20.371717 
rhand -18.980972 -18.511231 
rfingers 0.000000 
rthumb 7.323502 -48.364507 
lclavicle 0.000000 0.000000 
lhumerus -38.735308 34.187083 70.318137 
lradius 24.927466 
lwrist -60.056055 
lhand -19.067701 0.607034 
lfingers 0.000000 
lthumb 7.239811 30.463210 
rfemur -35.209229 -7.935956 13.405121 
rtibia 89.201682 
rfoot -0.519592 -0.228795 
rtoes -37.476752 
lfemur -33.382505 -2.144041 -25.569788 
ltibia 31.821508 
lfoot -8.212091 -0.204192 
ltoes -20.384803 
171
root -6.256027 17.206044 -6.728748 9.460126 3.035033 2.668509
lowerback -8.045711 1.439092 -4.453800 
upperback 2.888198 2.572149 -1.312689 
thorax 7.436277 1.107549 1.487870 
lowerneck -1.200410 -2.544839 3.446521 
upperneck 11.144628 -3.829199 -2.346214 
head 3.719444 -2.038715 -1.525642 
rclavicle 0.000000 0.000000 
rhumerus -31.046000 -11.889422 -85.057042 
rradius 40.973625 
rwrist 20.289280 
rhand -18.961104 -18.512077 
rfingers 0.000000 
rthumb 7.342676 -48.364667 
lclavicle 0.000000 0.000000 
lhumerus -38.139435 34.283739 70.650430 
lradius 24.831683 
lwrist -60.626750 
lhand -19.215955 0.517051 
lfingers 0.000000 
lthumb 7.096697 30.378067 
rfemur -36.560312 -8.128318 13.485293 
rtibia 90.316050 
rfoot -0.715190 0.269247 
rtoes -37.647558 
lfemur -32.704602 -2.176874 -25.554139 
ltibia 31.520905 
lfoot -8.384164 -0.247770 
ltoes -20.491733 
172
root -6.233962 17.227281 -6.653192 9.227245 3.063852 2.656174
lowerback -7.922750 1.306329 -4.440845 
upperback 2.894700 2.386493 -1.307061 
thorax 7.382721 1.018841 1.457184 
lowerneck -1.206302 -2.462564 3.691746 
upperneck 11.229240 -3.714329 -2.597493 
head 3.747137 -1.985379 -1.651715 
rclavicle 0.000000 0.000000 
rhumerus -31.262484 -11.878237 -85.036906 
rradius 41.014159 
rwrist 20.318704 
rhand -18.970243 -18.411896 
rfingers 0.000000 
rthumb 7.333880 -48.264830 
lclavicle 0.000000 0.000000 
lhumerus -37.700227 34.750776 70.655854 
lradius 24.664894 
lwrist -61.687482 
lhand -19.527276 0.435173 
lfingers 0.000000 
lthumb 6.796150 30.306108 
rfemur -37.832377 -8.291991 13.436491 
rtibia 91.341763 
rfoot -0.891476 0.826923 
rtoes -37.603052 
lfemur -31.974311 -2.257102 -25.599299 
ltibia 31.236158 
lfoot -8.614979 -0.267181 
ltoes -20.450017 
